# xmcd
#
# Track frame offsets: 
#        150
#        57520
#        106424
#        155449
#        196811
#        233388
#        258664
#        280660
#        299222
#
# Disc length: 4412 seconds
#
# Revision: 0
# Processed by: cddbd v1.5.2PL0 Copyright (c) Steve Scherf et al.
# Submitted via: ExactAudioCopy v1.0b1
#
DISCID=82113a09
DTITLE=Christoph Gedschold, Munich Radio Orchestra - Schumann (Georg):
DTITLE=Symphony in b minor
DYEAR=2009
DGENRE=Classical
TTITLE0=Symphony, b minor   Allegro moderato 
TTITLE1=Symphony, b minor   Adagio - Andante  
TTITLE2=Symphony, b minor   Allegro di molto scherzando
TTITLE3=Symphony, b minor   Finale: Allegro
TTITLE4=Serenade, large orchestra   Auf dem Wege  Op. 34
TTITLE5=Serenade, large orchestra   Nächtlicher Spuk  Op. 34 
TTITLE6=Serenade, large orchestra   Ständchen  Op. 34
TTITLE7=Serenade, large orchestra   Intermezzo  Op. 34 
TTITLE8=Serenade, large orchestra   Finale  Op. 34 
EXTD=
EXTT0=
EXTT1=
EXTT2=
EXTT3=
EXTT4=
EXTT5=
EXTT6=
EXTT7=
EXTT8=
PLAYORDER=
